<?xml version="1.0" encoding="UTF-8"?>
<svg version="1.1" xmlns="http://www.w3.org/2000/svg" width="80" height="80">
<path d="M0 0 C4.39249301 -0.02494208 8.78494717 -0.04297329 13.17749023 -0.05493164 C14.66805745 -0.05992328 16.15861986 -0.06671894 17.64916992 -0.07543945 C25.49484991 -0.12015168 33.21373172 -0.1148321 41 1 C41.58984375 2.8515625 41.58984375 2.8515625 42 5 C41.525625 5.78375 41.05125 6.5675 40.5625 7.375 C38.66738002 10.55880157 38.61157372 12.348793 39 16 C39.89831016 18.30230766 39.89831016 18.30230766 41 20 C42.1446875 19.2575 42.1446875 19.2575 43.3125 18.5 C46 17 46 17 49 17 C49 19.31 49 21.62 49 24 C47.71073008 24.36279456 46.41846728 24.71496698 45.125 25.0625 C44.04605469 25.35833984 44.04605469 25.35833984 42.9453125 25.66015625 C41 26 41 26 39 25 C39 25.99 39 26.98 39 28 C41.64 28.66 44.28 29.32 47 30 C46.67 31.98 46.34 33.96 46 36 C45.01 36 44.02 36 43 36 C43 35.34 43 34.68 43 34 C41.35 33.34 39.7 32.68 38 32 C38 31.01 38 30.02 38 29 C37.34 29.33 36.68 29.66 36 30 C35.5740468 33.62060222 35.89966161 34.85262799 38 37.9375 C40.22696814 41.34754497 40.37905384 43.01993465 40 47 C37.69 48.32 35.38 49.64 33 51 C32.34 49.68 31.68 48.36 31 47 C29.02 47.495 29.02 47.495 27 48 C26.67 47.34 26.34 46.68 26 46 C24.84922778 52.56338394 24.84922778 52.56338394 26 59 C27.92022703 60.77409808 27.92022703 60.77409808 30 62 C30.33 62.33 30.66 62.66 31 63 C31.639375 63.474375 32.27875 63.94875 32.9375 64.4375 C35.58561048 67.72757666 35.90165227 70.5469261 36.5078125 74.66015625 C36.90264534 77.25647717 36.90264534 77.25647717 39 80 C30.42924152 80.06942626 21.85859999 80.12277341 13.28763008 80.15543652 C9.30802626 80.17111101 5.32861441 80.19238138 1.34912109 80.22631836 C-2.48934956 80.25884887 -6.32763524 80.27683957 -10.16623306 80.28463173 C-11.63272134 80.29018666 -13.09919918 80.30103379 -14.56560898 80.31719017 C-16.61541591 80.33888161 -18.66445275 80.34197055 -20.71435547 80.34057617 C-21.88239716 80.34723801 -23.05043884 80.35389984 -24.25387573 80.36076355 C-25.16009674 80.24171158 -26.06631775 80.12265961 -27 80 C-27.66 79.01 -28.32 78.02 -29 77 C-29.99 77.99 -29.99 77.99 -31 79 C-31 71.41 -31 63.82 -31 56 C-30.34 56.33 -29.68 56.66 -29 57 C-29 58.32 -29 59.64 -29 61 C-27.68 61.66 -26.36 62.32 -25 63 C-25 63.66 -25 64.32 -25 65 C-24.01 65.33 -23.02 65.66 -22 66 C-22 66.99 -22 67.98 -22 69 C-23.32 69 -24.64 69 -26 69 C-24.9275 69.556875 -23.855 70.11375 -22.75 70.6875 C-19.35083445 72.6111657 -17.24604279 74.76569838 -15 78 C-13.71891293 76.93358047 -13.71891293 76.93358047 -13.78125 74.453125 C-13.03222616 65.92257577 -13.03222616 65.92257577 -9.8671875 63.09375 C-7.61158167 61.87756128 -5.41429669 60.85444245 -3 60 C-3 59.01 -3 58.02 -3 57 C-2.34 57 -1.68 57 -1 57 C-1.734389 55.67870176 -2.48816894 54.36816829 -3.25 53.0625 C-3.87648438 51.96615234 -3.87648438 51.96615234 -4.515625 50.84765625 C-5.86051097 48.87730027 -5.86051097 48.87730027 -7.96875 48.15625 C-11.15168313 47.91140899 -13.2925591 49.46168131 -16 51 C-16 50.34 -16 49.68 -16 49 C-16.66 48.67 -17.32 48.34 -18 48 C-18 47.34 -18 46.68 -18 46 C-18.66 45.67 -19.32 45.34 -20 45 C-19.34 42.36 -18.68 39.72 -18 37 C-15.525 36.505 -15.525 36.505 -13 36 C-12.87625 34.80375 -12.7525 33.6075 -12.625 32.375 C-12.17674946 28.72403187 -11.29553163 25.45475101 -10 22 C-10.804375 21.525625 -11.60875 21.05125 -12.4375 20.5625 C-15 19 -15 19 -16 18 C-16.51761119 13.60030488 -16.33850955 11.53340899 -13.9375 7.75 C-11.00072969 4.62915861 -8.06801062 3.28067001 -4 2 C-3.01 2.33 -2.02 2.66 -1 3 C-0.67 2.01 -0.34 1.02 0 0 Z M-12 32 C-11 34 -11 34 -11 34 Z M33 38 C32.67 39.32 32.34 40.64 32 42 C32.99 42.33 33.98 42.66 35 43 C34.67 41.35 34.34 39.7 34 38 C33.67 38 33.34 38 33 38 Z M-13 39 C-13 39.66 -13 40.32 -13 41 C-13.99 41.495 -13.99 41.495 -15 42 C-13.515 42.99 -13.515 42.99 -12 44 C-12 42.35 -12 40.7 -12 39 C-12.33 39 -12.66 39 -13 39 Z M-9 44 C-8 46 -8 46 -8 46 Z M17.4375 50.375 C15.77914204 51.88807063 15.77914204 51.88807063 16 54 C18.475 54.99 18.475 54.99 21 56 C20.67 53.69 20.34 51.38 20 49 C18.77822672 48.88989535 18.77822672 48.88989535 17.4375 50.375 Z M0 51 C0.33 52.32 0.66 53.64 1 55 C2.32 54.67 3.64 54.34 5 54 C4.67 53.01 4.34 52.02 4 51 C2.68 51 1.36 51 0 51 Z " fill="#98899D" transform="translate(31,0)"/>
<path d="M0 0 C7.09727428 -0.10808032 13.96094956 0.06145994 21 1 C21.58984375 2.8515625 21.58984375 2.8515625 22 5 C21.525625 5.78375 21.05125 6.5675 20.5625 7.375 C18.66738002 10.55880157 18.61157372 12.348793 19 16 C19.89831016 18.30230766 19.89831016 18.30230766 21 20 C21.763125 19.505 22.52625 19.01 23.3125 18.5 C26 17 26 17 29 17 C29 19.31 29 21.62 29 24 C27.71073008 24.36279456 26.41846728 24.71496698 25.125 25.0625 C24.04605469 25.35833984 24.04605469 25.35833984 22.9453125 25.66015625 C21 26 21 26 19 25 C19 25.99 19 26.98 19 28 C21.64 28.66 24.28 29.32 27 30 C26.67 31.98 26.34 33.96 26 36 C25.01 36 24.02 36 23 36 C23 35.34 23 34.68 23 34 C21.35 33.34 19.7 32.68 18 32 C18 31.01 18 30.02 18 29 C17.01 29.495 17.01 29.495 16 30 C15.5740468 33.62060222 15.89966161 34.85262799 18 37.9375 C20.22696814 41.34754497 20.37905384 43.01993465 20 47 C16.535 48.98 16.535 48.98 13 51 C12.34 49.68 11.68 48.36 11 47 C9.02 47.495 9.02 47.495 7 48 C6.67 47.34 6.34 46.68 6 46 C5.34 47.65 4.68 49.3 4 51 C3.34 50.731875 2.68 50.46375 2 50.1875 C-1.60479825 49.96220011 -1.88230526 50.56220012 -4.5625 52.75 C-6.61328125 54.16796875 -6.61328125 54.16796875 -9 55 C-15.4217606 53.656294 -20.59764452 50.85307283 -25 46 C-24.67 45.34 -24.34 44.68 -24 44 C-23.34 44.33 -22.68 44.66 -22 45 C-22 44.34 -22 43.68 -22 43 C-22.61875 42.835 -23.2375 42.67 -23.875 42.5 C-26.67395906 40.52426419 -27.08633955 38.44330223 -27.7421875 35.1640625 C-28.14019718 31.82319335 -27.94952887 29.22839815 -27 26 C-24.6875 24.1875 -24.6875 24.1875 -22 23 C-21.236875 22.608125 -20.47375 22.21625 -19.6875 21.8125 C-19.130625 21.544375 -18.57375 21.27625 -18 21 C-18.33 23.31 -18.66 25.62 -19 28 C-17.03177114 26.03177114 -17.33751619 22.65191291 -17 20 C-12.27536912 20.46319911 -8.82942948 21.09891706 -5 24 C-5 24.66 -5 25.32 -5 26 C-4.34 26 -3.68 26 -3 26 C-3 23.69 -3 21.38 -3 19 C-0.5625 19.375 -0.5625 19.375 2 20 C2.33 20.66 2.66 21.32 3 22 C2.67 22.66 2.34 23.32 2 24 C2.66 24 3.32 24 4 24 C4.25015873 20.58357241 4.25015873 20.58357241 4 17 C3.01 16.34 2.02 15.68 1 15 C0.67 14.01 0.34 13.02 0 12 C1.32 11.67 2.64 11.34 4 11 C3.01 10.67 2.02 10.34 1 10 C1 9.34 1 8.68 1 8 C2.32 8.33 3.64 8.66 5 9 C5.33 7.68 5.66 6.36 6 5 C5.01 4.360625 4.02 3.72125 3 3.0625 C2.01 2.381875 1.02 1.70125 0 1 C0 0.67 0 0.34 0 0 Z M13 38 C12.67 39.32 12.34 40.64 12 42 C12.99 42.33 13.98 42.66 15 43 C14.67 41.35 14.34 39.7 14 38 C13.67 38 13.34 38 13 38 Z " fill="#395B8E" transform="translate(51,0)"/>
<path d="M0 0 C3.18718443 -0.117292 6.37380568 -0.18760766 9.5625 -0.25 C10.90538086 -0.30027344 10.90538086 -0.30027344 12.27539062 -0.3515625 C18.42944732 -0.44173183 21.9339686 0.46976138 27 4 C26.34 5.65 25.68 7.3 25 9 C23.68 8.67 22.36 8.34 21 8 C21 8.66 21 9.32 21 10 C23.475 10.495 23.475 10.495 26 11 C26 11.33 26 11.66 26 12 C24.35 12.33 22.7 12.66 21 13 C21.99 14.32 22.98 15.64 24 17 C23.67 17.66 23.34 18.32 23 19 C22.29875 18.80664062 21.5975 18.61328125 20.875 18.4140625 C17.91846942 17.6026234 14.95926889 16.80138722 12 16 C11.24074219 15.78730469 10.48148438 15.57460937 9.69921875 15.35546875 C3.90434084 13.77440205 3.90434084 13.77440205 -2 14 C-4.5776924 16.27115601 -6.46089476 18.92178953 -8 22 C-13.75 20.25 -13.75 20.25 -16 18 C-16.59549472 13.57632496 -16.35099863 11.55308875 -13.9375 7.75 C-11.00072969 4.62915861 -8.06801062 3.28067001 -4 2 C-3.01 2.33 -2.02 2.66 -1 3 C-0.67 2.01 -0.34 1.02 0 0 Z " fill="#202633" transform="translate(31,0)"/>
<path d="M0 0 C5.93417465 1.35328129 11.54846913 3.49337132 17.203125 5.73046875 C17.203125 5.07046875 17.203125 4.41046875 17.203125 3.73046875 C17.863125 3.73046875 18.523125 3.73046875 19.203125 3.73046875 C18.873125 6.04046875 18.543125 8.35046875 18.203125 10.73046875 C17.543125 10.73046875 16.883125 10.73046875 16.203125 10.73046875 C16.203125 9.74046875 16.203125 8.75046875 16.203125 7.73046875 C13.728125 6.74046875 13.728125 6.74046875 11.203125 5.73046875 C11.203125 8.04046875 11.203125 10.35046875 11.203125 12.73046875 C10.543125 12.73046875 9.883125 12.73046875 9.203125 12.73046875 C8.76355469 12.27027344 8.32398438 11.81007813 7.87109375 11.3359375 C5.85717927 9.39748586 4.17493869 8.85232509 1.515625 8.04296875 C0.70738281 7.79160156 -0.10085937 7.54023438 -0.93359375 7.28125 C-1.54847656 7.09949219 -2.16335937 6.91773438 -2.796875 6.73046875 C-2.796875 9.70046875 -2.796875 12.67046875 -2.796875 15.73046875 C-3.786875 15.40046875 -4.776875 15.07046875 -5.796875 14.73046875 C-5.466875 12.75046875 -5.136875 10.77046875 -4.796875 8.73046875 C-7.46161676 9.94171501 -9.55443272 10.91183733 -11.796875 12.73046875 C-13.56773378 18.14721326 -12.5761981 22.48146559 -10.796875 27.73046875 C-9.806875 28.39046875 -8.816875 29.05046875 -7.796875 29.73046875 C-7.796875 30.39046875 -7.796875 31.05046875 -7.796875 31.73046875 C-8.786875 32.22546875 -8.786875 32.22546875 -9.796875 32.73046875 C-9.178125 33.26671875 -8.559375 33.80296875 -7.921875 34.35546875 C-5.40489028 37.16856932 -4.52315624 39.02643441 -3.796875 42.73046875 C-4.61779178 46.69823319 -5.81728597 50.19548834 -7.796875 53.73046875 C-8.456875 53.07046875 -9.116875 52.41046875 -9.796875 51.73046875 C-9.76399917 49.00177468 -9.23289729 46.43380695 -8.796875 43.73046875 C-8.136875 43.73046875 -7.476875 43.73046875 -6.796875 43.73046875 C-7.531264 42.40917051 -8.28504394 41.09863704 -9.046875 39.79296875 C-9.67335938 38.69662109 -9.67335938 38.69662109 -10.3125 37.578125 C-11.65738597 35.60776902 -11.65738597 35.60776902 -13.765625 34.88671875 C-16.94855813 34.64187774 -19.0894341 36.19215006 -21.796875 37.73046875 C-21.796875 37.07046875 -21.796875 36.41046875 -21.796875 35.73046875 C-22.456875 35.40046875 -23.116875 35.07046875 -23.796875 34.73046875 C-23.796875 34.07046875 -23.796875 33.41046875 -23.796875 32.73046875 C-24.456875 32.40046875 -25.116875 32.07046875 -25.796875 31.73046875 C-25.136875 29.09046875 -24.476875 26.45046875 -23.796875 23.73046875 C-22.146875 23.40046875 -20.496875 23.07046875 -18.796875 22.73046875 C-18.735 21.61671875 -18.673125 20.50296875 -18.609375 19.35546875 C-17.75761034 12.60133486 -14.39099568 7.12164977 -10.671875 1.54296875 C-6.83428216 -0.87638326 -4.41664676 -0.60940071 0 0 Z M-17.796875 18.73046875 C-16.796875 20.73046875 -16.796875 20.73046875 -16.796875 20.73046875 Z M-18.796875 25.73046875 C-18.796875 26.39046875 -18.796875 27.05046875 -18.796875 27.73046875 C-19.786875 28.22546875 -19.786875 28.22546875 -20.796875 28.73046875 C-19.311875 29.72046875 -19.311875 29.72046875 -17.796875 30.73046875 C-17.796875 29.08046875 -17.796875 27.43046875 -17.796875 25.73046875 C-18.126875 25.73046875 -18.456875 25.73046875 -18.796875 25.73046875 Z M-14.796875 30.73046875 C-13.796875 32.73046875 -13.796875 32.73046875 -13.796875 32.73046875 Z " fill="#2D5FA5" transform="translate(36.796875,13.26953125)"/>
<path d="M0 0 C0.93423645 3.01031744 1.04449911 3.86650268 0 7 C0.495 7.433125 0.99 7.86625 1.5 8.3125 C3 10 3 10 3 13 C0.69 13.33 -1.62 13.66 -4 14 C-4.33 13.01 -4.66 12.02 -5 11 C-5 12.98 -5 14.96 -5 17 C-4.401875 16.67 -3.80375 16.34 -3.1875 16 C-0.91734127 14.96221315 0.51971711 15 3 15 C3.71929687 14.95359375 4.43859375 14.9071875 5.1796875 14.859375 C6.51386719 14.80523437 6.51386719 14.80523437 7.875 14.75 C8.75929688 14.70359375 9.64359375 14.6571875 10.5546875 14.609375 C13 15 13 15 14.8203125 17.015625 C15.20960937 17.67046875 15.59890625 18.3253125 16 19 C17.94074861 18.72382467 17.94074861 18.72382467 20 18 C20.66 17.01 21.32 16.02 22 15 C22.36279733 21.04662214 21.35738305 24.81753289 17.75 29.6875 C12.53503185 33.59872611 12.53503185 33.59872611 9 34 C2.97969712 32.28842874 -1.76551925 29.61131979 -6 25 C-5.67 24.34 -5.34 23.68 -5 23 C-4.34 23.33 -3.68 23.66 -3 24 C-3 23.34 -3 22.68 -3 22 C-3.61875 21.835 -4.2375 21.67 -4.875 21.5 C-7.67395906 19.52426419 -8.08633955 17.44330223 -8.7421875 14.1640625 C-9.14019718 10.82319335 -8.94952887 8.22839815 -8 5 C-5.625 3.1875 -5.625 3.1875 -3 2 C-2.01 1.34 -1.02 0.68 0 0 Z " fill="#F9E3E6" transform="translate(32,21)"/>
<path d="M0 0 C4.72463088 0.46319911 8.17057052 1.09891706 12 4 C12 4.66 12 5.32 12 6 C12.66 6 13.32 6 14 6 C14.33 4.68 14.66 3.36 15 2 C15.66 2.33 16.32 2.66 17 3 C17 3.99 17 4.98 17 6 C17.66 6.33 18.32 6.66 19 7 C18.34 7 17.68 7 17 7 C17.33 8.32 17.66 9.64 18 11 C21.465 10.505 21.465 10.505 25 10 C25.5939348 17.57266875 23.43286286 23.87518733 21 31 C19.68 31 18.36 31 17 31 C17.33 28.36 17.66 25.72 18 23 C18.66 23 19.32 23 20 23 C19.67 21.68 19.34 20.36 19 19 C18.34 19.66 17.68 20.32 17 21 C15 20.8125 15 20.8125 13 20 C12.34 19.01 11.68 18.02 11 17 C8.86511724 16.56067135 8.86511724 16.56067135 6.5 16.6875 C5.30890625 16.69330078 5.30890625 16.69330078 4.09375 16.69921875 C1.78266964 16.81774835 1.78266964 16.81774835 0 19 C0 18.01 0 17.02 0 16 C-0.99 16 -1.98 16 -3 16 C-3.33 16.99 -3.66 17.98 -4 19 C-4.33 18.34 -4.66 17.68 -5 17 C-5.66 18.32 -6.32 19.64 -7 21 C-8 20 -8 20 -8.09765625 17.93359375 C-8.08605469 17.10988281 -8.07445313 16.28617188 -8.0625 15.4375 C-8.05347656 14.61121094 -8.04445313 13.78492188 -8.03515625 12.93359375 C-8.02355469 12.29550781 -8.01195313 11.65742188 -8 11 C-7.01 11.99 -6.02 12.98 -5 14 C-4.01 13.67 -3.02 13.34 -2 13 C-1.01 13.33 -0.02 13.66 1 14 C0.649375 12.989375 0.29875 11.97875 -0.0625 10.9375 C-1.1892448 7.07662622 -0.80531717 3.94605414 0 0 Z " fill="#9DAFD8" transform="translate(34,20)"/>
<path d="M0 0 C2.475 0.495 2.475 0.495 5 1 C7.37919704 4.56879555 7.74318513 7.45911077 8.4375 11.625 C8.91284999 14.24628387 8.91284999 14.24628387 11 17 C-1.54 17 -14.08 17 -27 17 C-28 10 -28 10 -26.0625 7.0625 C-25.381875 6.381875 -24.70125 5.70125 -24 5 C-24 5.66 -24 6.32 -24 7 C-23.34 7 -22.68 7 -22 7 C-21.67 6.34 -21.34 5.68 -21 5 C-20.67 6.32 -20.34 7.64 -20 9 C-16.98672434 7.49336217 -16.38943382 4.96833589 -15 2 C-12.20171644 2.38597015 -11.1794116 2.80136573 -9.25 4.9375 C-8 7 -8 7 -8 9 C-4.7 9.33 -1.4 9.66 2 10 C1.34 6.7 0.68 3.4 0 0 Z " fill="#3C3851" transform="translate(59,63)"/>
<path d="M0 0 C0.99 0.495 0.99 0.495 2 1 C2 2.32 2 3.64 2 5 C3.32 5.66 4.64 6.32 6 7 C6 7.66 6 8.32 6 9 C6.99 9.33 7.98 9.66 9 10 C9 10.99 9 11.98 9 13 C7.68 13 6.36 13 5 13 C6.0725 13.556875 7.145 14.11375 8.25 14.6875 C11.64916555 16.6111657 13.75395721 18.76569838 16 22 C17.75814793 20.24185207 17.42082038 17.51651399 17.6875 15.125 C18.19140625 11.8359375 18.19140625 11.8359375 19 9 C22.125 6.75 22.125 6.75 25 6 C25 9 25 9 24 11.4375 C22.75763834 14.16260006 22.75763834 14.16260006 23 18 C23.66 18 24.32 18 25 18 C25.33 17.34 25.66 16.68 26 16 C28.0625 17.75 28.0625 17.75 30 20 C29.62109375 22.140625 29.62109375 22.140625 29 24 C24.87513162 24.08676908 20.75049616 24.14031295 16.625 24.1875 C15.449375 24.21263672 14.27375 24.23777344 13.0625 24.26367188 C11.94101563 24.27333984 10.81953125 24.28300781 9.6640625 24.29296875 C8.62717285 24.3086792 7.5902832 24.32438965 6.52197266 24.34057617 C5.68972168 24.22818604 4.8574707 24.1157959 4 24 C3.34 23.01 2.68 22.02 2 21 C1.34 21.66 0.68 22.32 0 23 C0 15.41 0 7.82 0 0 Z " fill="#46434F" transform="translate(0,56)"/>
<path d="M0 0 C4.7025792 1.49349014 4.7025792 1.49349014 6.0390625 3.76953125 C6.23242188 4.44371094 6.42578125 5.11789063 6.625 5.8125 C7.46058666 8.46250341 8.16093414 10.250342 9.6875 12.625 C11.31627606 15.57230907 11.23131871 17.68443178 11 21 C8.69 22.32 6.38 23.64 4 25 C3.34 23.68 2.68 22.36 2 21 C0.68 21.33 -0.64 21.66 -2 22 C-3.24108155 16.7891013 -2.65160282 12.75073497 -1.5625 7.625 C-1.41490234 6.88894531 -1.26730469 6.15289062 -1.11523438 5.39453125 C-0.7528781 3.59443877 -0.37773891 1.79692747 0 0 Z M4 12 C3.67 13.32 3.34 14.64 3 16 C3.99 16.33 4.98 16.66 6 17 C5.67 15.35 5.34 13.7 5 12 C4.67 12 4.34 12 4 12 Z " fill="#5375AF" transform="translate(60,26)"/>
<path d="M0 0 C1.65 0.33 3.3 0.66 5 1 C7.37919704 4.56879555 7.74318513 7.45911077 8.4375 11.625 C8.91284999 14.24628387 8.91284999 14.24628387 11 17 C7.85418577 17.02888514 4.70840531 17.04675923 1.5625 17.0625 C0.66466797 17.07087891 -0.23316406 17.07925781 -1.15820312 17.08789062 C-2.43920898 17.09272461 -2.43920898 17.09272461 -3.74609375 17.09765625 C-4.53685303 17.10289307 -5.3276123 17.10812988 -6.14233398 17.11352539 C-8 17 -8 17 -9 16 C-9.14115161 13.32941149 -9.04247107 10.67567762 -9 8 C-5.37 8.66 -1.74 9.32 2 10 C1.34 6.7 0.68 3.4 0 0 Z " fill="#2C4259" transform="translate(59,63)"/>
<path d="M0 0 C0.66 0.598125 1.32 1.19625 2 1.8125 C5.10404705 4.07586764 7.68324124 5.05235464 11.328125 6.09375 C13 7 13 7 13.734375 9.09375 C13.82203125 9.7228125 13.9096875 10.351875 14 11 C11.33333333 11.66666667 8.66666667 12.33333333 6 13 C5.5359375 12.01 5.5359375 12.01 5.0625 11 C2.58829991 8.60077567 1.78608506 8.67883577 -1.5625 8.625 C-5.22876713 8.63784937 -5.22876713 8.63784937 -8 11 C-8 10.01 -8 9.02 -8 8 C-8.99 8 -9.98 8 -11 8 C-11.33 8.99 -11.66 9.98 -12 11 C-12.33 10.34 -12.66 9.68 -13 9 C-13.66 10.32 -14.32 11.64 -15 13 C-16 12 -16 12 -16.09765625 9.93359375 C-16.08605469 9.10988281 -16.07445313 8.28617188 -16.0625 7.4375 C-16.05347656 6.61121094 -16.04445313 5.78492188 -16.03515625 4.93359375 C-16.02355469 4.29550781 -16.01195313 3.65742188 -16 3 C-15.01 3.99 -14.02 4.98 -13 6 C-12.01 5.67 -11.02 5.34 -10 5 C-9.01 5.33 -8.02 5.66 -7 6 C-7.33 4.35 -7.66 2.7 -8 1 C-5.83125748 1.50603992 -4.00032373 1.99983813 -2 3 C-1.67 2.34 -1.34 1.68 -1 1 C-0.67 0.67 -0.34 0.34 0 0 Z " fill="#888CB4" transform="translate(42,28)"/>
<path d="M0 0 C0.66 0 1.32 0 2 0 C2.33951619 1.56116819 2.67132544 3.12401338 3 4.6875 C3.185625 5.55761719 3.37125 6.42773438 3.5625 7.32421875 C3.98972047 9.93712964 4.07616201 12.35813038 4 15 C3.360625 15.2475 2.72125 15.495 2.0625 15.75 C-0.13855444 16.80124155 -0.13855444 16.80124155 -0.75 18.875 C-1.07789417 21.30549118 -1.07789417 21.30549118 -1 25 C-1.99 24.67 -2.98 24.34 -4 24 C-4 22.68 -4 21.36 -4 20 C-4.99 19.34 -5.98 18.68 -7 18 C-8.98 18.99 -8.98 18.99 -11 20 C-11.28999491 15.07008655 -11.19703098 11.90748231 -8 8 C-7.01 8 -6.02 8 -5 8 C-4.67 8.99 -4.34 9.98 -4 11 C-2.03698408 7.49461443 -1.04097612 3.86648272 0 0 Z " fill="#9DA4BD" transform="translate(33,55)"/>
<path d="M0 0 C3.16115776 1.36983503 3.9927092 1.9890638 6 5 C7.96752828 6.06246527 9.96587579 7.07137808 12 8 C12 9.98 12 11.96 12 14 C12.66 14.33 13.32 14.66 14 15 C11.66487041 14.67949202 9.33177975 14.34403308 7 14 C5.6696875 13.9071875 5.6696875 13.9071875 4.3125 13.8125 C0.85412824 12.59739641 -0.10728758 10.02833987 -2 7 C-2.99 6.67 -3.98 6.34 -5 6 C-5.309375 6.94875 -5.61875 7.8975 -5.9375 8.875 C-7 12 -7 12 -8 14 C-8.66 13.67 -9.32 13.34 -10 13 C-10.625 9.9375 -10.625 9.9375 -11 7 C-4.375 3 -4.375 3 -1 3 C-0.67 2.01 -0.34 1.02 0 0 Z " fill="#EBEAEF" transform="translate(49,59)"/>
<path d="M0 0 C0.66 0.66 1.32 1.32 2 2 C1.505 2.53625 1.01 3.0725 0.5 3.625 C-1.37489544 6.59358445 -1.23501425 8.55312427 -1 12 C-0.34 12 0.32 12 1 12 C1.33 11.34 1.66 10.68 2 10 C4.0625 11.75 4.0625 11.75 6 14 C5.67 15.32 5.34 16.64 5 18 C-1.27 18 -7.54 18 -14 18 C-11.64046906 15.64046906 -10.22104383 15.50858587 -7 15 C-6.91363281 14.16855469 -6.82726562 13.33710937 -6.73828125 12.48046875 C-6.59777344 11.39378906 -6.45726562 10.30710937 -6.3125 9.1875 C-6.18488281 8.10855469 -6.05726562 7.02960938 -5.92578125 5.91796875 C-5 3 -5 3 -2.41796875 1.11328125 C-1.62003906 0.74589844 -0.82210938 0.37851562 0 0 Z " fill="#353647" transform="translate(24,62)"/>
<path d="M0 0 C7.09727428 -0.10808032 13.96094956 0.06145994 21 1 C22.0169313 3.65498232 22.13022151 4.69155375 21.00390625 7.359375 C20.52824219 8.14828125 20.05257812 8.9371875 19.5625 9.75 C19.08941406 10.54921875 18.61632812 11.3484375 18.12890625 12.171875 C17.75636719 12.77515625 17.38382813 13.3784375 17 14 C16.01 14 15.02 14 14 14 C14.103125 13.236875 14.20625 12.47375 14.3125 11.6875 C14.209375 10.800625 14.10625 9.91375 14 9 C11.8552976 7.24471981 11.8552976 7.24471981 9 6 C5.42488626 4.2839454 2.70877152 2.88508209 0 0 Z " fill="#CACED9" transform="translate(51,0)"/>
<path d="M0 0 C0.99 0.33 1.98 0.66 3 1 C2.34 1 1.68 1 1 1 C1.94933899 4.35433109 2.89748835 7.69246505 4 11 C4.66 11 5.32 11 6 11 C6.625 13.375 6.625 13.375 7 16 C6.34 16.66 5.68 17.32 5 18 C4.34 17.67 3.68 17.34 3 17 C0.96855359 17.93446535 -1.03533587 18.93224776 -3 20 C-3 19.34 -3 18.68 -3 18 C-3.66 17.67 -4.32 17.34 -5 17 C-5 16.34 -5 15.68 -5 15 C-5.66 14.67 -6.32 14.34 -7 14 C-6.34 11.36 -5.68 8.72 -5 6 C-3.35 5.67 -1.7 5.34 0 5 C0 3.35 0 1.7 0 0 Z M0 8 C0 8.66 0 9.32 0 10 C-0.99 10.495 -0.99 10.495 -2 11 C-0.515 11.99 -0.515 11.99 1 13 C1 11.35 1 9.7 1 8 C0.67 8 0.34 8 0 8 Z M4 13 C5 15 5 15 5 15 Z " fill="#24416F" transform="translate(18,31)"/>
<path d="M0 0 C7.54290017 -0.4946164 13.058915 1.09382609 20 4 C20 3.34 20 2.68 20 2 C20.66 2 21.32 2 22 2 C21.67 4.31 21.34 6.62 21 9 C20.34 9 19.68 9 19 9 C19 8.01 19 7.02 19 6 C17.35 5.34 15.7 4.68 14 4 C14 6.31 14 8.62 14 11 C13.34 11 12.68 11 12 11 C11.54882812 10.53335937 11.09765625 10.06671875 10.6328125 9.5859375 C8.75092088 7.75807147 7.37437366 7.33515414 4.875 6.625 C2.7421875 5.89453125 2.7421875 5.89453125 1 5 C0 2.3125 0 2.3125 0 0 Z " fill="#356DB6" transform="translate(34,15)"/>
<path d="M0 0 C0.93423645 3.01031744 1.04449911 3.86650268 0 7 C0.495 7.433125 0.99 7.86625 1.5 8.3125 C3 10 3 10 3 13 C0.69 13.33 -1.62 13.66 -4 14 C-4.33 13.01 -4.66 12.02 -5 11 C-5.04125 12.258125 -5.0825 13.51625 -5.125 14.8125 C-5.15980469 15.87404297 -5.15980469 15.87404297 -5.1953125 16.95703125 C-5.13254462 19.31359719 -5.13254462 19.31359719 -3 22 C-4.875 21.5 -4.875 21.5 -7 20 C-8.87620266 14.72876396 -9.61693291 10.4975719 -8 5 C-5.625 3.1875 -5.625 3.1875 -3 2 C-2.01 1.34 -1.02 0.68 0 0 Z " fill="#AACCF4" transform="translate(32,21)"/>
<path d="M0 0 C4.75032037 0.46571768 8.12160643 1.14824002 12 4 C13.35439668 6.70879335 13.06501451 9.00933268 13 12 C12.443125 11.46375 11.88625 10.9275 11.3125 10.375 C10.549375 9.92125 9.78625 9.4675 9 9 C8.195625 9.33 7.39125 9.66 6.5625 10 C5.2940625 10.495 5.2940625 10.495 4 11 C1.1875 9.625 1.1875 9.625 -1 8 C-0.67 5.36 -0.34 2.72 0 0 Z " fill="#B4D1F8" transform="translate(34,20)"/>
<path d="M0 0 C0.66 0 1.32 0 2 0 C2.45375 0.969375 2.9075 1.93875 3.375 2.9375 C4.65786221 6.07079582 4.65786221 6.07079582 7 7 C7 7.66 7 8.32 7 9 C6.01 9.495 6.01 9.495 5 10 C5.61875 10.53625 6.2375 11.0725 6.875 11.625 C9.39198472 14.43810057 10.27371876 16.29596566 11 20 C10.17908322 23.96776444 8.97958903 27.46501959 7 31 C6.34 30.34 5.68 29.68 5 29 C5.03287583 26.27130593 5.56397771 23.7033382 6 21 C6.66 21 7.32 21 8 21 C7.47599609 20.25556641 7.47599609 20.25556641 6.94140625 19.49609375 C3.85889249 14.89415395 2.34610059 11.53760939 2 6 C1.34 6 0.68 6 0 6 C0 4.02 0 2.04 0 0 Z " fill="#4E72B8" transform="translate(22,36)"/>
<path d="M0 0 C0.99 0.66 1.98 1.32 3 2 C3 4.33333333 3 6.66666667 3 9 C4.27159652 10.85602615 4.27159652 10.85602615 6 12 C6.66 12.66 7.32 13.32 8 14 C7.34 14 6.68 14 6 14 C6.33 15.32 6.66 16.64 7 18 C6.21625 17.814375 5.4325 17.62875 4.625 17.4375 C2.02910225 16.74037734 2.02910225 16.74037734 0 18 C-0.66 16.02 -1.32 14.04 -2 12 C-2.99 12 -3.98 12 -5 12 C-4.67 10.35 -4.34 8.7 -4 7 C-3.01 7.33 -2.02 7.66 -1 8 C-0.67 5.36 -0.34 2.72 0 0 Z " fill="#8A99C3" transform="translate(53,48)"/>
<path d="M0 0 C3.3 0 6.6 0 10 0 C12 4 12 4 11.125 7.25 C10.75375 8.1575 10.3825 9.065 10 10 C7.36 10 4.72 10 2 10 C1.34 6.7 0.68 3.4 0 0 Z " fill="#FDF3F8" transform="translate(35,36)"/>
<path d="M0 0 C1.625 1.6875 1.625 1.6875 1.625 5.6875 C-0.4586309 5.54598172 -2.54189938 5.39912064 -4.625 5.25 C-5.78515625 5.16878906 -6.9453125 5.08757813 -8.140625 5.00390625 C-10.68477376 4.75502213 -12.93453248 4.40635058 -15.375 3.6875 C-14.37110425 0.94960251 -13.6796066 -0.13481282 -11.125 -1.625 C-6.88006071 -2.68623482 -3.81133622 -2.10626476 0 0 Z " fill="#0C1828" transform="translate(40.375,9.3125)"/>
<path d="M0 0 C3.32310483 1.16757737 5.83361132 2.14948857 8 5 C8 5.99 8 6.98 8 8 C4.61242079 10.08466413 1.94726562 10.42905061 -2 10 C-4 7 -4 7 -3.8125 5 C-2.90059285 2.75530549 -1.81466246 1.57796735 0 0 Z " fill="#EDDDE2" transform="translate(6,70)"/>
<path d="M0 0 C2.375 0.3125 2.375 0.3125 5 1 C7.37919704 4.56879555 7.74318513 7.45911077 8.4375 11.625 C8.91284999 14.24628387 8.91284999 14.24628387 11 17 C8.03 17 5.06 17 2 17 C2.33 16.01 2.66 15.02 3 14 C3.66 14.33 4.32 14.66 5 15 C5 14.34 5 13.68 5 13 C4.52949219 12.57074219 4.05898438 12.14148438 3.57421875 11.69921875 C1.52693441 9.48937088 1.30980476 7.75807434 0.8125 4.8125 C0.65394531 3.91144531 0.49539062 3.01039062 0.33203125 2.08203125 C0.22246094 1.39496094 0.11289062 0.70789062 0 0 Z " fill="#2F3543" transform="translate(59,63)"/>
<path d="M0 0 C6.98629919 -0.50604984 11.20200116 -0.0333905 17 4 C16.34 5.65 15.68 7.3 15 9 C13 8 13 8 10.625 6.4375 C7.91407415 4.67979025 7.91407415 4.67979025 4 5 C3.67 5.66 3.34 6.32 3 7 C2.34 6.67 1.68 6.34 1 6 C0.375 2.9375 0.375 2.9375 0 0 Z " fill="#2D3341" transform="translate(41,0)"/>
<path d="M0 0 C0.78375 0.04125 1.5675 0.0825 2.375 0.125 C3.5625 1.75 3.5625 1.75 4.375 4.125 C3 7.375 3 7.375 1.375 10.125 C0.385 10.125 -0.605 10.125 -1.625 10.125 C-0.305 11.775 1.015 13.425 2.375 15.125 C-1.42088866 14.58273019 -3.09711993 12.92372437 -5.625 10.125 C-5.295 9.465 -4.965 8.805 -4.625 8.125 C-3.965 8.455 -3.305 8.785 -2.625 9.125 C-3.285 6.815 -3.945 4.505 -4.625 2.125 C-2.625 0.125 -2.625 0.125 0 0 Z " fill="#E3BCBF" transform="translate(31.625,35.875)"/>
<path d="M0 0 C2.3125 -0.25 2.3125 -0.25 5 0 C6.8125 2 6.8125 2 8 4 C7.01 4.33 6.02 4.66 5 5 C5.33 5.66 5.66 6.32 6 7 C5.34 7.66 4.68 8.32 4 9 C3.30251417 10.31747324 2.63040043 11.64914193 2 13 C1.67 13 1.34 13 1 13 C0.67 14.98 0.34 16.96 0 19 C-0.33 19 -0.66 19 -1 19 C-1.09507063 12.56688704 -1.15316726 6.34241995 0 0 Z " fill="#344B69" transform="translate(58,6)"/>
<path d="M0 0 C1.08667969 0.23009766 1.08667969 0.23009766 2.1953125 0.46484375 C0.3203125 1.52734375 0.3203125 1.52734375 -1.8046875 2.46484375 C-2.4646875 2.13484375 -3.1246875 1.80484375 -3.8046875 1.46484375 C-3.52625 2.42390625 -3.52625 2.42390625 -3.2421875 3.40234375 C-2.65135234 7.53818986 -3.22196991 11.34996105 -3.8046875 15.46484375 C-4.7946875 15.13484375 -5.7846875 14.80484375 -6.8046875 14.46484375 C-6.4746875 11.49484375 -6.1446875 8.52484375 -5.8046875 5.46484375 C-6.4646875 5.46484375 -7.1246875 5.46484375 -7.8046875 5.46484375 C-8.1346875 4.80484375 -8.4646875 4.14484375 -8.8046875 3.46484375 C-10.4546875 5.11484375 -12.1046875 6.76484375 -13.8046875 8.46484375 C-14.1346875 7.80484375 -14.4646875 7.14484375 -14.8046875 6.46484375 C-10.79693372 -0.316208 -7.68827798 -1.24037551 0 0 Z " fill="#3F5782" transform="translate(37.8046875,13.53515625)"/>
<path d="M0 0 C0 2.31 0 4.62 0 7 C-1.28926992 7.36279456 -2.58153272 7.71496698 -3.875 8.0625 C-4.59429687 8.25972656 -5.31359375 8.45695312 -6.0546875 8.66015625 C-8 9 -8 9 -10 8 C-10 6.02 -10 4.04 -10 2 C-9.01 2 -8.02 2 -7 2 C-6.34 1.67 -5.68 1.34 -5 1 C-3 0 -3 0 0 0 Z " fill="#95A1C3" transform="translate(80,17)"/>
<path d="M0 0 C0.33 0.66 0.66 1.32 1 2 C1.66 2 2.32 2 3 2 C3.33 1.34 3.66 0.68 4 0 C4.66 1.98 5.32 3.96 6 6 C4.68 6.33 3.36 6.66 2 7 C2 7.66 2 8.32 2 9 C2.66 9.33 3.32 9.66 4 10 C1 12 1 12 -2 12 C-3.35384615 5.72307692 -3.35384615 5.72307692 -1.5625 2.0625 C-1.046875 1.381875 -0.53125 0.70125 0 0 Z " fill="#424057" transform="translate(34,68)"/>
<path d="M0 0 C1.9375 0.3125 1.9375 0.3125 4 1 C5.09658936 4.28976808 4.79953138 5.71303767 4 9 C0.7 9 -2.6 9 -6 9 C-6.33 8.01 -6.66 7.02 -7 6 C-5.68 5.67 -4.36 5.34 -3 5 C-3.33 4.34 -3.66 3.68 -4 3 C-3.01 3 -2.02 3 -1 3 C-0.67 2.01 -0.34 1.02 0 0 Z " fill="#7A90AD" transform="translate(66,15)"/>
<path d="M0 0 C3 1 3 1 4.6875 3.1875 C6.17161628 6.36774916 6.24194353 8.53214273 6 12 C4.35 12.66 2.7 13.32 1 14 C0.34 13.34 -0.32 12.68 -1 12 C-1 10.68 -1 9.36 -1 8 C-0.34 8 0.32 8 1 8 C0.67 5.36 0.34 2.72 0 0 Z " fill="#6692C6" transform="translate(65,35)"/>
<path d="M0 0 C0.99 0.33 1.98 0.66 3 1 C3 1.99 3 2.98 3 4 C3.66 4.33 4.32 4.66 5 5 C4.34 5 3.68 5 3 5 C3.33 6.32 3.66 7.64 4 9 C4.99 9 5.98 9 7 9 C7.33 11.31 7.66 13.62 8 16 C7.67 15.01 7.34 14.02 7 13 C5.12612784 12.19787372 5.12612784 12.19787372 2.9375 11.8125 C2.20402344 11.65394531 1.47054687 11.49539062 0.71484375 11.33203125 C0.14894531 11.22246094 -0.41695312 11.11289062 -1 11 C-1.14285714 3.57142857 -1.14285714 3.57142857 0 0 Z " fill="#90A1CB" transform="translate(48,22)"/>
<path d="M0 0 C-0.57634139 4.75481646 -2.55068521 7.97048212 -5 12 C-5.99 12 -6.98 12 -8 12 C-8 9.69 -8 7.38 -8 5 C-7.34 4.67 -6.68 4.34 -6 4 C-6.99 3.01 -7.98 2.02 -9 1 C-6.04335481 -0.4783226 -3.25770263 -0.06032783 0 0 Z " fill="#E5E7EB" transform="translate(73,2)"/>
<path d="M0 0 C1.48484412 0.39595843 2.9628831 0.81750706 4.4375 1.25 C5.26121094 1.48203125 6.08492187 1.7140625 6.93359375 1.953125 C9 3 9 3 9.78515625 5.109375 C9.85605469 5.73328125 9.92695312 6.3571875 10 7 C6 8 6 8 2 9 C0.68 7.02 -0.64 5.04 -2 3 C-1.34 3 -0.68 3 0 3 C0 2.01 0 1.02 0 0 Z " fill="#A46642" transform="translate(46,32)"/>
<path d="M0 0 C0.99 0.33 1.98 0.66 3 1 C2.34 1 1.68 1 1 1 C1.185625 1.721875 1.37125 2.44375 1.5625 3.1875 C2.03716257 6.23890224 1.68096683 8.00374595 1 11 C0.62116985 13.99528372 0.3075345 16.99663119 0 20 C-0.66 19.67 -1.32 19.34 -2 19 C-1.938125 17.88625 -1.87625 16.7725 -1.8125 15.625 C-1.9053125 13.830625 -1.9053125 13.830625 -2 12 C-2.99 11.34 -3.98 10.68 -5 10 C-5.33 9.01 -5.66 8.02 -6 7 C-4.68 6.67 -3.36 6.34 -2 6 C-2.99 5.67 -3.98 5.34 -5 5 C-5 4.34 -5 3.68 -5 3 C-3.02 3.495 -3.02 3.495 -1 4 C-0.67 2.68 -0.34 1.36 0 0 Z " fill="#4B72A5" transform="translate(57,5)"/>
<path d="M0 0 C0 0.66 0 1.32 0 2 C0.66 2.33 1.32 2.66 2 3 C1.34 4.98 0.68 6.96 0 9 C-1.98 8.34 -3.96 7.68 -6 7 C-6.33 5.35 -6.66 3.7 -7 2 C-4.35261084 0.5393715 -3.10551666 0 0 0 Z " fill="#1F2E45" transform="translate(23,13)"/>
<path d="M0 0 C3.3 0 6.6 0 10 0 C10.66 1.98 11.32 3.96 12 6 C8.44953334 6 6.89760758 5.75904303 3.75 4.5 C3.04359375 4.2215625 2.3371875 3.943125 1.609375 3.65625 C1.07828125 3.4396875 0.5471875 3.223125 0 3 C0 2.01 0 1.02 0 0 Z " fill="#101A29" transform="translate(31,0)"/>
<path d="M0 0 C0.99 0.33 1.98 0.66 3 1 C3.54466387 5.084979 4 8.8725485 4 13 C3.01 12.34 2.02 11.68 1 11 C1 10.34 1 9.68 1 9 C-0.32 9.33 -1.64 9.66 -3 10 C-2.67 7.36 -2.34 4.72 -2 2 C-1.34 2 -0.68 2 0 2 C0 1.34 0 0.68 0 0 Z " fill="#86A9D8" transform="translate(61,38)"/>
<path d="M0 0 C0.33 0.66 0.66 1.32 1 2 C2.88764903 2.68472665 2.88764903 2.68472665 5.0625 3.125 C5.79597656 3.29257812 6.52945313 3.46015625 7.28515625 3.6328125 C7.85105469 3.75398438 8.41695312 3.87515625 9 4 C8.67 5.98 8.34 7.96 8 10 C7.01 10 6.02 10 5 10 C5 9.34 5 8.68 5 8 C4.195625 7.773125 3.39125 7.54625 2.5625 7.3125 C0 6 0 6 -0.875 3.4375 C-0.91625 2.633125 -0.9575 1.82875 -1 1 C-0.67 0.67 -0.34 0.34 0 0 Z " fill="#BFC9D6" transform="translate(69,26)"/>
<path d="M0 0 C0.33 0.99 0.66 1.98 1 3 C1.515625 3.495 2.03125 3.99 2.5625 4.5 C4 6 4 6 4 9 C1.69 9.33 -0.62 9.66 -3 10 C-3.33 7.03 -3.66 4.06 -4 1 C-2.68 0.67 -1.36 0.34 0 0 Z " fill="#8AA7D3" transform="translate(31,25)"/>
<path d="M0 0 C3.12658623 2.08439082 3.4231517 2.8463034 5 6 C5.99 6.66 6.98 7.32 8 8 C3.71 8 -0.58 8 -5 8 C-4.67 6.35 -4.34 4.7 -4 3 C-3.01 2.67 -2.02 2.34 -1 2 C-0.67 1.34 -0.34 0.68 0 0 Z " fill="#515E84" transform="translate(40,72)"/>
<path d="M0 0 C2.70186003 5.40372007 2.96904346 6.98923575 1 13 C0.37530495 14.35350594 -0.2716331 15.69934483 -1 17 C-1.66 16.34 -2.32 15.68 -3 15 C-2.96712417 12.27130593 -2.43602229 9.7033382 -2 7 C-1.34 7 -0.68 7 0 7 C-0.99 5.35 -1.98 3.7 -3 2 C-2.01 2 -1.02 2 0 2 C0 1.34 0 0.68 0 0 Z " fill="#446195" transform="translate(30,50)"/>
<path d="M0 0 C0.66 0.33 1.32 0.66 2 1 C2.66 1 3.32 1 4 1 C3.4375 3.8125 3.4375 3.8125 2 7 C-0.28536073 8.44088563 -2.40707624 9.13569208 -5 10 C-5.66 8.68 -6.32 7.36 -7 6 C-6.38125 5.9175 -5.7625 5.835 -5.125 5.75 C-2.82618538 5.19392091 -2.82618538 5.19392091 -1.8125 3 C-1.544375 2.34 -1.27625 1.68 -1 1 C-0.67 0.67 -0.34 0.34 0 0 Z " fill="#3B6CAE" transform="translate(29,16)"/>
<path d="M0 0 C0.33 0.66 0.66 1.32 1 2 C1.66 2 2.32 2 3 2 C3.625 4.375 3.625 4.375 4 7 C3.34 7.66 2.68 8.32 2 9 C1.34 8.67 0.68 8.34 0 8 C-2.03144641 8.93446535 -4.03533587 9.93224776 -6 11 C-6 10.34 -6 9.68 -6 9 C-6.66 8.67 -7.32 8.34 -8 8 C-7.67 6.35 -7.34 4.7 -7 3 C-6.67 4.32 -6.34 5.64 -6 7 C-5.01 5.68 -4.02 4.36 -3 3 C-3 3.99 -3 4.98 -3 6 C-1.35 6 0.3 6 2 6 C1.34 5.01 0.68 4.02 0 3 C0 2.01 0 1.02 0 0 Z " fill="#223E72" transform="translate(21,40)"/>
<path d="M0 0 C0.886875 0.37125 1.77375 0.7425 2.6875 1.125 C6.40826005 2.10784228 7.67438135 1.76062164 11 0 C11 0.66 11 1.32 11 2 C7.27034861 4.03435531 5.33094958 5 1 5 C0.67 6.98 0.34 8.96 0 11 C-0.33 11 -0.66 11 -1 11 C-1.33 8.03 -1.66 5.06 -2 2 C-1.34 2 -0.68 2 0 2 C0 1.34 0 0.68 0 0 Z " fill="#7E6379" transform="translate(36,52)"/>
<path d="M0 0 C3.68266103 0.59950296 7.34543185 1.24758891 11 2 C9.75023244 5.65316671 9.32901247 6.78065836 6 9 C5.566875 8.195625 5.13375 7.39125 4.6875 6.5625 C3.19525998 3.72153646 3.19525998 3.72153646 0 3 C0 2.01 0 1.02 0 0 Z " fill="#233A69" transform="translate(59,22)"/>
<path d="M0 0 C0.6875 1.8125 0.6875 1.8125 1 4 C-0.4375 5.75 -0.4375 5.75 -2 7 C-3.9375 6.25 -3.9375 6.25 -6 5 C-6.75 2.875 -6.75 2.875 -7 1 C-4.53721199 -0.231394 -2.7204945 -0.07159196 0 0 Z " fill="#F19685" transform="translate(44,45)"/>
<path d="M0 0 C1.35439668 2.70879335 1.06501451 5.00933268 1 8 C0.443125 7.54625 -0.11375 7.0925 -0.6875 6.625 C-3.05313439 4.96266232 -5.29015658 3.97855457 -8 3 C-8 2.34 -8 1.68 -8 1 C-5.07175348 0.02391783 -3.04386724 -0.08226668 0 0 Z " fill="#4A87D3" transform="translate(46,18)"/>
<path d="M0 0 C1.32 0 2.64 0 4 0 C4.16682272 4.92127034 4.24828052 8.50343896 2 13 C1.04972401 10.14917204 0.70808784 7.78896626 0.4375 4.8125 C0.35371094 3.91144531 0.26992188 3.01039062 0.18359375 2.08203125 C0.12300781 1.39496094 0.06242187 0.70789063 0 0 Z " fill="#BCD4F9" transform="translate(55,30)"/>
<path d="M0 0 C0 1.65 0 3.3 0 5 C-2.64 5 -5.28 5 -8 5 C-8.33 3.68 -8.66 2.36 -9 1 C-6.04335481 -0.4783226 -3.25770263 -0.06032783 0 0 Z " fill="#2A2E49" transform="translate(60,26)"/>
<path d="M0 0 C5.75 0.875 5.75 0.875 8 2 C8 1.34 8 0.68 8 0 C8.66 0 9.32 0 10 0 C9.67 2.31 9.34 4.62 9 7 C8.34 7 7.68 7 7 7 C7 6.01 7 5.02 7 4 C4.525 3.01 4.525 3.01 2 2 C2 4.31 2 6.62 2 9 C1.67 9 1.34 9 1 9 C0.67 6.03 0.34 3.06 0 0 Z " fill="#25487B" transform="translate(46,17)"/>
<path d="M0 0 C1.32 0 2.64 0 4 0 C4 1.32 4 2.64 4 4 C5.32 3.34 6.64 2.68 8 2 C8 2.99 8 3.98 8 5 C7.01 5.33 6.02 5.66 5 6 C4.67 6.66 4.34 7.32 4 8 C2.68 8 1.36 8 0 8 C0 6.35 0 4.7 0 3 C0.66 2.67 1.32 2.34 2 2 C1.34 1.34 0.68 0.68 0 0 Z " fill="#657D9E" transform="translate(61,10)"/>
<path d="M0 0 C1.485 0.99 1.485 0.99 3 2 C3.29296875 4.1640625 3.29296875 4.1640625 3.1875 6.625 C3.16042969 7.44226562 3.13335937 8.25953125 3.10546875 9.1015625 C3.07066406 9.72804688 3.03585938 10.35453125 3 11 C2.01 11.33 1.02 11.66 0 12 C-1.49498913 9.01002175 -1.11577446 6.29957225 -1 3 C-0.67 2.01 -0.34 1.02 0 0 Z " fill="#4A6598" transform="translate(53,48)"/>
<path d="M0 0 C0.66 0.66 1.32 1.32 2 2 C0 5 -2 8 -4 11 C-5.43060128 8.13879744 -5.38692581 6.15989415 -5 3 C-2.5 1.125 -2.5 1.125 0 0 Z " fill="#242E3F" transform="translate(24,62)"/>
<path d="M0 0 C0.598125 0.20625 1.19625 0.4125 1.8125 0.625 C0.47916667 3.29166667 -0.85416667 5.95833333 -2.1875 8.625 C-2.8475 8.295 -3.5075 7.965 -4.1875 7.625 C-4.8125 4.5625 -4.8125 4.5625 -5.1875 1.625 C-2.1875 -0.375 -2.1875 -0.375 0 0 Z " fill="#F7E4E9" transform="translate(43.1875,64.375)"/>
<path d="M0 0 C0.66 0.33 1.32 0.66 2 1 C2.3125 3.25 2.3125 3.25 2 6 C-0.5 8.3125 -0.5 8.3125 -3 10 C-3.66 8.68 -4.32 7.36 -5 6 C-4.01 5.67 -3.02 5.34 -2 5 C-0.78130071 2.49552484 -0.78130071 2.49552484 0 0 Z " fill="#FFE4E5" transform="translate(35,40)"/>
<path d="M0 0 C4.41889613 1.35021826 6.34345343 3.26115668 9 7 C8.67 7.66 8.34 8.32 8 9 C6.35 8.67 4.7 8.34 3 8 C2.67 6.02 2.34 4.04 2 2 C1.34 2 0.68 2 0 2 C0 1.34 0 0.68 0 0 Z " fill="#0F1A2B" transform="translate(46,10)"/>
<path d="M0 0 C2.91517292 1.07401108 4.77810176 1.77810176 7 4 C7 4.99 7 5.98 7 7 C5.68 6.67 4.36 6.34 3 6 C3.33 5.34 3.66 4.68 4 4 C2.68 4.33 1.36 4.66 0 5 C-0.5625 3.0625 -0.5625 3.0625 -1 1 C-0.67 0.67 -0.34 0.34 0 0 Z " fill="#EED0D3" transform="translate(7,71)"/>
<path d="M0 0 C0.33 0 0.66 0 1 0 C1.125 6.625 1.125 6.625 0 10 C-2.475 9.01 -2.475 9.01 -5 8 C-5 7.01 -5 6.02 -5 5 C-4.360625 4.731875 -3.72125 4.46375 -3.0625 4.1875 C-0.66868314 3.11332248 -0.66868314 3.11332248 0 0 Z " fill="#F5C2C1" transform="translate(53,36)"/>
<path d="M0 0 C0.99 0.99 1.98 1.98 3 3 C3.99 2.67 4.98 2.34 6 2 C6.66 2.66 7.32 3.32 8 4 C7.01 4 6.02 4 5 4 C4.67 5.32 4.34 6.64 4 8 C3.67 7.34 3.34 6.68 3 6 C2.34 7.32 1.68 8.64 1 10 C0 9 0 9 -0.09765625 6.93359375 C-0.08605469 6.10988281 -0.07445313 5.28617188 -0.0625 4.4375 C-0.05347656 3.61121094 -0.04445313 2.78492188 -0.03515625 1.93359375 C-0.02355469 1.29550781 -0.01195313 0.65742188 0 0 Z " fill="#5E4C60" transform="translate(26,31)"/>
<path d="M0 0 C2.4375 0.375 2.4375 0.375 5 1 C5.33 1.66 5.66 2.32 6 3 C5.67 3.66 5.34 4.32 5 5 C5.66 5 6.32 5 7 5 C7.33 5.99 7.66 6.98 8 8 C6.35 7.67 4.7 7.34 3 7 C3 6.01 3 5.02 3 4 C2.01 3.67 1.02 3.34 0 3 C0 2.01 0 1.02 0 0 Z " fill="#5D7EAD" transform="translate(48,19)"/>
<path d="M0 0 C0.86625 0.144375 1.7325 0.28875 2.625 0.4375 C2.109375 0.80875 1.59375 1.18 1.0625 1.5625 C-2.19061018 4.06489244 -5.27622527 6.74783317 -8.375 9.4375 C-8.705 8.7775 -9.035 8.1175 -9.375 7.4375 C-4.43845733 0.57535558 -4.43845733 0.57535558 0 0 Z " fill="#344F7C" transform="translate(32.375,12.5625)"/>
<path d="M0 0 C0.33 0.66 0.66 1.32 1 2 C1.99 2.33 2.98 2.66 4 3 C4 4.32 4 5.64 4 7 C2.35 7 0.7 7 -1 7 C-1.625 4.625 -1.625 4.625 -2 2 C-1.34 1.34 -0.68 0.68 0 0 Z " fill="#EBEEF4" transform="translate(52,73)"/>
<path d="M0 0 C1.65 0.99 3.3 1.98 5 3 C4.67 4.65 4.34 6.3 4 8 C3.01 7.67 2.02 7.34 1 7 C0.6278958 5.67696283 0.29369827 4.34262065 0 3 C-0.66 2.67 -1.32 2.34 -2 2 C-1.34 2 -0.68 2 0 2 C0 1.34 0 0.68 0 0 Z " fill="#26293B" transform="translate(25,72)"/>
<path d="M0 0 C2.475 0.99 2.475 0.99 5 2 C5 2.99 5 3.98 5 5 C4.01 5.495 4.01 5.495 3 6 C2.34 6.99 1.68 7.98 1 9 C0 8 0 8 -0.09765625 6.15234375 C-0.06510417 4.1015625 -0.03255208 2.05078125 0 0 Z " fill="#A9CCF2" transform="translate(60,26)"/>
<path d="M0 0 C0 0.66 0 1.32 0 2 C-3.69541586 2.95024979 -6.30458414 2.95024979 -10 2 C-7.79474226 -2.41051548 -4.20111955 -0.70018659 0 0 Z " fill="#9FA5DE" transform="translate(46,33)"/>
<path d="M0 0 C0.99 0 1.98 0 3 0 C3.33 1.32 3.66 2.64 4 4 C1.69 4.33 -0.62 4.66 -3 5 C-1.125 1.125 -1.125 1.125 0 0 Z " fill="#FEF0F4" transform="translate(8,75)"/>
<path d="M0 0 C1.2065625 0.0309375 1.2065625 0.0309375 2.4375 0.0625 C2.1075 1.0525 1.7775 2.0425 1.4375 3.0625 C-0.2125 3.3925 -1.8625 3.7225 -3.5625 4.0625 C-3.8925 5.3825 -4.2225 6.7025 -4.5625 8.0625 C-4.8925 7.4025 -5.2225 6.7425 -5.5625 6.0625 C-3.52170816 0.08589532 -3.52170816 0.08589532 0 0 Z " fill="#405C93" transform="translate(62.5625,35.9375)"/>
<path d="M0 0 C0.99 0 1.98 0 3 0 C3 2.31 3 4.62 3 7 C2.01 7 1.02 7 0 7 C-1.125 2.25 -1.125 2.25 0 0 Z " fill="#E2E6EB" transform="translate(77,17)"/>
<path d="M0 0 C0.99 0.33 1.98 0.66 3 1 C2.34 1 1.68 1 1 1 C1.309375 2.175625 1.309375 2.175625 1.625 3.375 C1.74875 4.24125 1.8725 5.1075 2 6 C1.34 6.66 0.68 7.32 0 8 C0 7.34 0 6.68 0 6 C-1.65 5.67 -3.3 5.34 -5 5 C-5 4.34 -5 3.68 -5 3 C-3.68 3.33 -2.36 3.66 -1 4 C-0.67 2.68 -0.34 1.36 0 0 Z " fill="#728EB8" transform="translate(57,5)"/>
<path d="M0 0 C1.32 1.65 2.64 3.3 4 5 C1.03 5 -1.94 5 -5 5 C-4.67 4.01 -4.34 3.02 -4 2 C-3.01 2 -2.02 2 -1 2 C-0.67 1.34 -0.34 0.68 0 0 Z " fill="#272D3A" transform="translate(66,75)"/>
<path d="M0 0 C1.65 0.33 3.3 0.66 5 1 C4.01 1.33 3.02 1.66 2 2 C2 2.66 2 3.32 2 4 C2.66 4.33 3.32 4.66 4 5 C2.35 5.66 0.7 6.32 -1 7 C-0.67 4.69 -0.34 2.38 0 0 Z " fill="#181F31" transform="translate(34,73)"/>
<path d="M0 0 C1.98 0 3.96 0 6 0 C6.33 1.65 6.66 3.3 7 5 C4.625 4.75 4.625 4.75 2 4 C0.6875 1.9375 0.6875 1.9375 0 0 Z " fill="#171E30" transform="translate(42,75)"/>
<path d="M0 0 C0.66 0 1.32 0 2 0 C2.38218767 1.65614657 2.71395102 3.32457024 3 5 C2 6 2 6 -0.5625 6.0625 C-1.7690625 6.0315625 -1.7690625 6.0315625 -3 6 C-2.01 4.02 -1.02 2.04 0 0 Z " fill="#6D6B9D" transform="translate(44,65)"/>
<path d="M0 0 C0.99 0.33 1.98 0.66 3 1 C3 2.65 3 4.3 3 6 C1.02 5.34 -0.96 4.68 -3 4 C-2.67 3.01 -2.34 2.02 -2 1 C-1.34 0.67 -0.68 0.34 0 0 Z " fill="#426698" transform="translate(14,41)"/>
<path d="M0 0 C0.66 0.33 1.32 0.66 2 1 C1.34 4.3 0.68 7.6 0 11 C-0.33 11 -0.66 11 -1 11 C-1.33 8.03 -1.66 5.06 -2 2 C-1.34 2 -0.68 2 0 2 C0 1.34 0 0.68 0 0 Z " fill="#614E64" transform="translate(36,52)"/>
<path d="M0 0 C0.33 1.32 0.66 2.64 1 4 C2.98 4 4.96 4 7 4 C5.35 5.32 3.7 6.64 2 8 C1.67 7.34 1.34 6.68 1 6 C0.34 5.67 -0.32 5.34 -1 5 C-0.67 3.35 -0.34 1.7 0 0 Z " fill="#294F88" transform="translate(14,43)"/>
<path d="M0 0 C0.99 0 1.98 0 3 0 C3.66 1.32 4.32 2.64 5 4 C3.35 4.33 1.7 4.66 0 5 C-0.33 4.34 -0.66 3.68 -1 3 C-0.67 2.01 -0.34 1.02 0 0 Z " fill="#F29C4B" transform="translate(31,36)"/>
<path d="M0 0 C-2.35277269 2.72426311 -4.62496331 3.8141763 -8 5 C-8.33 4.01 -8.66 3.02 -9 2 C-5.5647952 -0.29013653 -4.014669 -0.17842973 0 0 Z " fill="#497FC0" transform="translate(32,21)"/>
<path d="M0 0 C2.97 0.495 2.97 0.495 6 1 C6.33 1.99 6.66 2.98 7 4 C6.01 4.495 6.01 4.495 5 5 C4.01 4.34 3.02 3.68 2 3 C1.01 3.495 1.01 3.495 0 4 C0 2.68 0 1.36 0 0 Z " fill="#8D8AA3" transform="translate(50,71)"/>
<path d="M0 0 C2 1 2 1 2.8125 3.3125 C3 6 3 6 0 10 C0 6.7 0 3.4 0 0 Z " fill="#A2AAC6" transform="translate(0,56)"/>
<path d="M0 0 C1.32 0.33 2.64 0.66 4 1 C4.33 2.32 4.66 3.64 5 5 C3.68 4.67 2.36 4.34 1 4 C0.67 2.68 0.34 1.36 0 0 Z " fill="#6A90D8" transform="translate(25,47)"/>
<path d="M0 0 C0.66 0.33 1.32 0.66 2 1 C2.625 4.0625 2.625 4.0625 3 7 C1.68 7 0.36 7 -1 7 C-0.67 4.69 -0.34 2.38 0 0 Z " fill="#3B5F99" transform="translate(19,39)"/>
<path d="M0 0 C3.37462715 0.54723683 5.08235 1.0549 8 3 C7.67 3.66 7.34 4.32 7 5 C4.69 4.01 2.38 3.02 0 2 C0 1.34 0 0.68 0 0 Z " fill="#5396E7" transform="translate(38,19)"/>
<path d="M0 0 C-0.66 1.98 -1.32 3.96 -2 6 C-2.99 6 -3.98 6 -5 6 C-5 4.68 -5 3.36 -5 2 C-2 0 -2 0 0 0 Z " fill="#B3C3D4" transform="translate(70,8)"/>
<path d="M0 0 C1.32 0.33 2.64 0.66 4 1 C4 1.66 4 2.32 4 3 C4.66 3.66 5.32 4.32 6 5 C4.125 5.625 4.125 5.625 2 6 C1.34 5.34 0.68 4.68 0 4 C0 2.68 0 1.36 0 0 Z " fill="#2C5282" transform="translate(64,43)"/>
<path d="M0 0 C0.66 0 1.32 0 2 0 C2.33 1.65 2.66 3.3 3 5 C1.35 5 -0.3 5 -2 5 C-1.34 3.35 -0.68 1.7 0 0 Z " fill="#FDF4F8" transform="translate(32,29)"/>
<path d="M0 0 C2 1 2 1 2 1 Z " fill="#4D5E77" transform="translate(61,60)"/>
<path d="" fill="#2E1F2D" transform="translate(0,0)"/>
<path d="" fill="#4E7BBD" transform="translate(0,0)"/>
<path d="" fill="#394E73" transform="translate(0,0)"/>
<path d="" fill="#1B1F28" transform="translate(0,0)"/>
<path d="" fill="#1B2028" transform="translate(0,0)"/>
<path d="" fill="#4A79BD" transform="translate(0,0)"/>
<path d="" fill="#212029" transform="translate(0,0)"/>
<path d="" fill="#4C7BBD" transform="translate(0,0)"/>
<path d="" fill="#212029" transform="translate(0,0)"/>
<path d="" fill="#B8C5E4" transform="translate(0,0)"/>
<path d="" fill="#262029" transform="translate(0,0)"/>
<path d="" fill="#1E2029" transform="translate(0,0)"/>
</svg>
